# xmcd
#
# Track frame offsets:
#	150
#	19874
#	37752
#	54630
#	73512
#	97982
#	121870
#	141700
#	159010
#	188817
#	205567
#	223590
#	239427
#	257077
#	268275
#	285182
#	305520
#	313587
#	328457
#
# Disc length: 4585 seconds
#
# Revision: 1
# Processed by: cddbd v1.5.1PL0 Copyright (c) Steve Scherf et al.
# Submitted via: audiograbber 1.83.01
#
DISCID=1411e713
DTITLE=Janis Joplin - Star Series
DYEAR=1900
DGENRE=
TTITLE0=Turtle Blues
TTITLE1=Try (Just A Little Bit Harder)
TTITLE2=Maybe
TTITLE3=One Good Man
TTITLE4=As Good As You're Been To This World
TTITLE5=To Love Somebody
TTITLE6=Kozmic Blues
TTITLE7=Little Girl Blue
TTITLE8=Work Me, Lord
TTITLE9=Move over
TTITLE10=Cry Baby
TTITLE11=A Woman Left Lonely
TTITLE12=Half Moon
TTITLE13=Buried Alive In The Blues
TTITLE14=My Baby
TTITLE15=Me And Bobby McGee
TTITLE16=Mersedes Benz
TTITLE17=Trust Me
TTITLE18=Get It While You Can
EXTD=
EXTT0=
EXTT1=
EXTT2=
EXTT3=
EXTT4=
EXTT5=
EXTT6=
EXTT7=
EXTT8=
EXTT9=
EXTT10=
EXTT11=
EXTT12=
EXTT13=
EXTT14=
EXTT15=
EXTT16=
EXTT17=
EXTT18=
PLAYORDER=
